<?xml version="1.0" encoding="UTF-8" standalone="no"?> <svg width="64" height="64" viewBox="0 0 64 64" fill="none" xmlns="http://www.w3.org/2000/svg">
<path d="M51 15H5C4.46957 15 3.96086 15.2107 3.58579 15.5858C3.21071 15.9609 3 16.4696 3 17V21H53V17C53 16.4696 52.7893 15.9609 52.4142 15.5858C52.0391 15.2107 51.5304 15 51 15Z" fill="#9BC9FF"/>
<path d="M59 3H13C12.4696 3 11.9609 3.21071 11.5858 3.58579C11.2107 3.96086 11 4.46957 11 5V9H61V5C61 4.46957 60.7893 3.96086 60.4142 3.58579C60.0391 3.21071 59.5304 3 59 3Z" fill="#9BC9FF"/>
<path d="M42 50V44H37.54C37.3653 43.4396 37.1376 42.8972 36.86 42.38L40.02 39.22L35.78 34.98L32.62 38.14C32.1028 37.8624 31.5604 37.6347 31 37.46V33H25V37.46C24.4396 37.6347 23.8972 37.8624 23.38 38.14L20.22 34.98L15.98 39.22L19.14 42.38C18.8624 42.8972 18.6347 43.4396 18.46 44H14V50H18.46C18.6347 50.5604 18.8624 51.1028 19.14 51.62L15.98 54.78L20.22 59.02L23.38 55.86C23.8972 56.1376 24.4396 56.3653 25 56.54V61H31V56.54C31.5604 56.3653 32.1028 56.1376 32.62 55.86L35.78 59.02L40.02 54.78L36.86 51.62C37.1376 51.1028 37.3653 50.5604 37.54 50H42ZM28 51C27.2089 51 26.4355 50.7654 25.7777 50.3259C25.1199 49.8864 24.6072 49.2616 24.3045 48.5307C24.0017 47.7998 23.9225 46.9956 24.0769 46.2196C24.2312 45.4437 24.6122 44.731 25.1716 44.1716C25.731 43.6122 26.4437 43.2312 27.2196 43.0769C27.9956 42.9225 28.7998 43.0017 29.5307 43.3045C30.2616 43.6072 30.8864 44.1199 31.3259 44.7777C31.7654 45.4355 32 46.2089 32 47C32 48.0609 31.5786 49.0783 30.8284 49.8284C30.0783 50.5786 29.0609 51 28 51Z" fill="#9BC9FF"/>
<path d="M8 17H6V19H8V17Z" fill="#1E81CE"/>
<path d="M12 17H10V19H12V17Z" fill="#1E81CE"/>
<path d="M16 17H14V19H16V17Z" fill="#1E81CE"/>
<path d="M59 2H13C12.2044 2 11.4413 2.31607 10.8787 2.87868C10.3161 3.44129 10 4.20435 10 5V14H5C4.20435 14 3.44129 14.3161 2.87868 14.8787C2.31607 15.4413 2 16.2044 2 17V53C2 53.7956 2.31607 54.5587 2.87868 55.1213C3.44129 55.6839 4.20435 56 5 56H13V54H5C4.73478 54 4.48043 53.8946 4.29289 53.7071C4.10536 53.5196 4 53.2652 4 53V22H52V53C52 53.2652 51.8946 53.5196 51.7071 53.7071C51.5196 53.8946 51.2652 54 51 54H43V56H51C51.7956 56 52.5587 55.6839 53.1213 55.1213C53.6839 54.5587 54 53.7956 54 53V44H59C59.7956 44 60.5587 43.6839 61.1213 43.1213C61.6839 42.5587 62 41.7956 62 41V5C62 4.20435 61.6839 3.44129 61.1213 2.87868C60.5587 2.31607 59.7956 2 59 2V2ZM4 20V17C4 16.7348 4.10536 16.4804 4.29289 16.2929C4.48043 16.1054 4.73478 16 5 16H51C51.2652 16 51.5196 16.1054 51.7071 16.2929C51.8946 16.4804 52 16.7348 52 17V20H4ZM60 41C60 41.2652 59.8946 41.5196 59.7071 41.7071C59.5196 41.8946 59.2652 42 59 42H54V17C54 16.2044 53.6839 15.4413 53.1213 14.8787C52.5587 14.3161 51.7956 14 51 14H12V10H60V41ZM12 8V5C12 4.73478 12.1054 4.48043 12.2929 4.29289C12.4804 4.10536 12.7348 4 13 4H59C59.2652 4 59.5196 4.10536 59.7071 4.29289C59.8946 4.48043 60 4.73478 60 5V8H12Z" fill="#1E81CE"/>
<path d="M16 5H14V7H16V5Z" fill="#1E81CE"/>
<path d="M20 5H18V7H20V5Z" fill="#1E81CE"/>
<path d="M24 5H22V7H24V5Z" fill="#1E81CE"/>
<path d="M43 44C43 43.7348 42.8946 43.4804 42.7071 43.2929C42.5196 43.1054 42.2652 43 42 43H38.247C38.19 42.856 38.133 42.717 38.073 42.581L40.727 39.927C40.9145 39.7395 41.0198 39.4852 41.0198 39.22C41.0198 38.9548 40.9145 38.7005 40.727 38.513L36.487 34.273C36.2995 34.0855 36.0452 33.9802 35.78 33.9802C35.5148 33.9802 35.2605 34.0855 35.073 34.273L32.419 36.927C32.283 36.868 32.144 36.81 32 36.753V33C32 32.7348 31.8946 32.4804 31.7071 32.2929C31.5196 32.1054 31.2652 32 31 32H25C24.7348 32 24.4804 32.1054 24.2929 32.2929C24.1054 32.4804 24 32.7348 24 33V36.753C23.856 36.81 23.717 36.868 23.581 36.927L20.927 34.273C20.7359 34.0923 20.483 33.9917 20.22 33.9917C19.957 33.9917 19.7041 34.0923 19.513 34.273L15.273 38.513C15.0855 38.7005 14.9802 38.9548 14.9802 39.22C14.9802 39.4852 15.0855 39.7395 15.273 39.927L17.927 42.581C17.867 42.717 17.81 42.856 17.753 43H14C13.7348 43 13.4804 43.1054 13.2929 43.2929C13.1054 43.4804 13 43.7348 13 44V50C13 50.2652 13.1054 50.5196 13.2929 50.7071C13.4804 50.8946 13.7348 51 14 51H17.753C17.81 51.144 17.867 51.283 17.927 51.418L15.273 54.073C15.0855 54.2605 14.9802 54.5148 14.9802 54.78C14.9802 55.0452 15.0855 55.2995 15.273 55.487L19.513 59.727C19.7005 59.9145 19.9548 60.0198 20.22 60.0198C20.4852 60.0198 20.7395 59.9145 20.927 59.727L23.581 57.073C23.717 57.132 23.856 57.19 24 57.247V61C24 61.2652 24.1054 61.5196 24.2929 61.7071C24.4804 61.8946 24.7348 62 25 62H31C31.2652 62 31.5196 61.8946 31.7071 61.7071C31.8946 61.5196 32 61.2652 32 61V57.247C32.144 57.19 32.283 57.132 32.419 57.073L35.073 59.727C35.2641 59.9077 35.517 60.0083 35.78 60.0083C36.043 60.0083 36.2959 59.9077 36.487 59.727L40.727 55.487C40.9145 55.2995 41.0198 55.0452 41.0198 54.78C41.0198 54.5148 40.9145 54.2605 40.727 54.073L38.073 51.418C38.133 51.283 38.19 51.144 38.247 51H42C42.2652 51 42.5196 50.8946 42.7071 50.7071C42.8946 50.5196 43 50.2652 43 50V44ZM41 49H37.54C37.3283 49 37.122 49.0672 36.951 49.1919C36.7799 49.3166 36.6528 49.4924 36.588 49.694C36.4328 50.1942 36.2302 50.6784 35.983 51.14C35.8792 51.3296 35.8397 51.5478 35.8703 51.7618C35.901 51.9758 36.0002 52.1741 36.153 52.327L38.6 54.78L35.78 57.606L33.327 55.153C33.174 54.9999 32.9755 54.9006 32.7613 54.87C32.5471 54.8393 32.3288 54.879 32.139 54.983C31.6777 55.2309 31.1934 55.4335 30.693 55.588C30.4916 55.653 30.316 55.7801 30.1915 55.9512C30.067 56.1223 29.9999 56.3284 30 56.54V60H26V56.54C26.0001 56.3284 25.933 56.1223 25.8085 55.9512C25.684 55.7801 25.5084 55.653 25.307 55.588C24.8066 55.4335 24.3223 55.2309 23.861 54.983C23.6712 54.879 23.4529 54.8393 23.2387 54.87C23.0245 54.9006 22.826 54.9999 22.673 55.153L20.22 57.606L17.4 54.78L19.852 52.327C20.0048 52.1741 20.104 51.9758 20.1347 51.7618C20.1653 51.5478 20.1258 51.3296 20.022 51.14C19.7748 50.6784 19.5722 50.1942 19.417 49.694C19.352 49.4916 19.2241 49.3152 19.052 49.1904C18.8799 49.0657 18.6726 48.9989 18.46 49H15V45H18.46C18.6717 45 18.878 44.9328 19.049 44.8081C19.2201 44.6834 19.3472 44.5076 19.412 44.306C19.5672 43.8058 19.7698 43.3216 20.017 42.86C20.1208 42.6704 20.1603 42.4522 20.1297 42.2382C20.099 42.0242 19.9998 41.8259 19.847 41.673L17.4 39.22L20.225 36.394L22.678 38.847C22.831 39.0001 23.0295 39.0994 23.2437 39.13C23.4579 39.1607 23.6762 39.121 23.866 39.017C24.3273 38.7691 24.8116 38.5665 25.312 38.412C25.5124 38.3462 25.6869 38.2186 25.8105 38.0477C25.9341 37.8767 26.0004 37.671 26 37.46V34H30V37.46C29.9999 37.6716 30.067 37.8777 30.1915 38.0488C30.316 38.2199 30.4916 38.347 30.693 38.412C31.1934 38.5665 31.6777 38.7691 32.139 39.017C32.3288 39.121 32.5471 39.1607 32.7613 39.13C32.9755 39.0994 33.174 39.0001 33.327 38.847L35.78 36.394L38.6 39.22L36.148 41.673C35.9952 41.8259 35.896 42.0242 35.8653 42.2382C35.8347 42.4522 35.8742 42.6704 35.978 42.86C36.2252 43.3216 36.4278 43.8058 36.583 44.306C36.648 44.5084 36.7759 44.6848 36.948 44.8096C37.1201 44.9343 37.3274 45.0011 37.54 45H41V49Z" fill="#1E81CE"/>
<path d="M28 42C27.0111 42 26.0444 42.2932 25.2222 42.8427C24.3999 43.3921 23.759 44.173 23.3806 45.0866C23.0022 46.0002 22.9031 47.0055 23.0961 47.9755C23.289 48.9454 23.7652 49.8363 24.4645 50.5355C25.1637 51.2348 26.0546 51.711 27.0246 51.9039C27.9945 52.0969 28.9998 51.9978 29.9134 51.6194C30.8271 51.241 31.6079 50.6001 32.1574 49.7779C32.7068 48.9556 33 47.9889 33 47C32.9984 45.6744 32.4711 44.4036 31.5338 43.4662C30.5964 42.5289 29.3256 42.0016 28 42V42ZM28 50C27.4067 50 26.8266 49.8241 26.3333 49.4944C25.8399 49.1648 25.4554 48.6962 25.2284 48.148C25.0013 47.5999 24.9419 46.9967 25.0576 46.4147C25.1734 45.8328 25.4591 45.2982 25.8787 44.8787C26.2982 44.4591 26.8328 44.1734 27.4147 44.0576C27.9967 43.9419 28.5999 44.0013 29.1481 44.2284C29.6962 44.4554 30.1648 44.8399 30.4944 45.3333C30.8241 45.8266 31 46.4067 31 47C31 47.7956 30.6839 48.5587 30.1213 49.1213C29.5587 49.6839 28.7957 50 28 50V50Z" fill="#1E81CE"/>
<path d="M40 24H16V26H40V24Z" fill="#1E81CE"/>
<path d="M44 24H42V26H44V24Z" fill="#1E81CE"/>
<path d="M40 28H16V30H40V28Z" fill="#1E81CE"/>
<path d="M44 28H42V30H44V28Z" fill="#1E81CE"/>
<path d="M14 24H12V26H14V24Z" fill="#1E81CE"/>
<path d="M14 28H12V30H14V28Z" fill="#1E81CE"/>
<path d="M14 36V34H6V52H11V50H8V36H14Z" fill="#1E81CE"/>
<path d="M42 36H48V50H45V52H50V34H42V36Z" fill="#1E81CE"/>
<path d="M29 35H27V37H29V35Z" fill="#1E81CE"/>
<path d="M20.2223 37.8078L18.808 39.222L20.2223 40.6363L21.6365 39.222L20.2223 37.8078Z" fill="#1E81CE"/>
<path d="M18 46H16V48H18V46Z" fill="#1E81CE"/>
<path d="M20.222 53.3636L18.8078 54.7778L20.222 56.192L21.6362 54.7778L20.222 53.3636Z" fill="#1E81CE"/>
<path d="M29 57H27V59H29V57Z" fill="#1E81CE"/>
<path d="M35.7778 53.3638L34.3636 54.778L35.7778 56.1922L37.192 54.778L35.7778 53.3638Z" fill="#1E81CE"/>
<path d="M40 46H38V48H40V46Z" fill="#1E81CE"/>
<path d="M35.778 37.8081L34.3638 39.2223L35.778 40.6365L37.1922 39.2223L35.778 37.8081Z" fill="#1E81CE"/>
</svg>
